<?xml version="1.0" encoding="UTF-8"?> <svg xmlns="http://www.w3.org/2000/svg" width="22" height="26" viewBox="0 0 22 26" fill="none"><path d="M21.755 9.17648C21.755 4.95989 18.6287 1.52942 14.7859 1.52942C14.3607 1.52942 13.9372 1.57245 13.5214 1.65646C14.841 3.32143 15.5622 5.42626 15.5622 7.64707C15.5622 10.0686 14.7053 12.3527 13.1496 14.0784C12.5608 14.7316 11.8954 15.2781 11.1652 15.7104C11.8803 16.1876 12.6698 16.5212 13.4974 16.6918L11.6893 19.8824H13.9658C13.9556 19.9057 13.9451 19.9294 13.9342 19.954C13.7912 20.2756 13.6133 20.6758 13.6133 21.4116C13.6133 22.1474 13.7912 22.5476 13.9342 22.8693C14.0479 23.1253 14.1231 23.2945 14.1231 23.7058C14.1231 24.117 14.0479 24.2863 13.9342 24.5423C13.7912 24.864 13.6133 25.2642 13.6133 26H15.1428C15.1428 25.5888 15.2179 25.4195 15.3317 25.1635C15.4747 24.8418 15.6526 24.4416 15.6526 23.7058C15.6526 22.9699 15.4747 22.5697 15.3317 22.2481C15.2179 21.992 15.1428 21.8228 15.1428 21.4116C15.1428 21.0004 15.2179 20.8312 15.3317 20.5752C15.4149 20.388 15.5098 20.1736 15.5747 19.8824H17.8698L16.095 16.6876C19.3141 16.0135 21.755 12.9021 21.755 9.17648Z" fill="#1c61e7"></path><path d="M7.97735 18.3529H10.2228L8.44683 15.1562C11.6287 14.4782 14.0328 11.3743 14.0328 7.64706C14.0328 3.42369 10.9463 0 7.13893 0C3.33156 0 0.245056 3.42369 0.245056 7.64706C0.245056 11.3822 2.65944 14.4914 5.85137 15.1604L4.04228 18.3529H6.36306C6.32228 18.4345 6.27532 18.5156 6.22307 18.6054C5.99513 18.9972 5.71148 19.4847 5.71148 20.3919C5.71148 21.2992 5.99508 21.7867 6.22302 22.1785C6.40619 22.4933 6.52717 22.7012 6.52717 23.1959C6.52717 23.6907 6.40619 23.8986 6.22302 24.2134C5.99508 24.6052 5.71148 25.0928 5.71148 26H7.24089C7.24089 25.5053 7.36187 25.2973 7.54499 24.9825C7.77292 24.5907 8.05658 24.1032 8.05658 23.1959C8.05658 22.2886 7.77297 21.8011 7.54504 21.4094C7.36187 21.0946 7.24089 20.8866 7.24089 20.3919C7.24089 19.8972 7.36187 19.6893 7.54499 19.3746C7.69849 19.1108 7.87702 18.8028 7.97735 18.3529Z" fill="#1c61e7"></path></svg> 