<?xml version="1.0" encoding="UTF-8"?> <svg xmlns="http://www.w3.org/2000/svg" width="26" height="22" viewBox="0 0 26 22" fill="none"><path d="M22.762 0.740112H3.622C1.938 0.740112 0 2.23611 0 3.67811V15.2781C0 16.6061 1.642 17.5651 3.217 17.7131L2.192 21.6041L8.76 17.7401H22.762C24.446 17.7401 26 16.7191 26 15.2781V5.89311V3.67811C26 2.23611 24.445 0.740112 22.762 0.740112ZM6.542 10.5321C5.587 10.5321 4.813 9.75811 4.813 8.80311C4.813 7.84811 5.587 7.07411 6.542 7.07411C7.496 7.07411 8.271 7.84811 8.271 8.80311C8.271 9.75811 7.496 10.5321 6.542 10.5321ZM13 10.5321C12.045 10.5321 11.271 9.75811 11.271 8.80311C11.271 7.84811 12.045 7.07411 13 7.07411C13.955 7.07411 14.729 7.84811 14.729 8.80311C14.729 9.75811 13.955 10.5321 13 10.5321ZM19.459 10.5321C18.504 10.5321 17.729 9.75811 17.729 8.80311C17.729 7.84811 18.504 7.07411 19.459 7.07411C20.412 7.07411 21.188 7.84811 21.188 8.80311C21.188 9.75811 20.412 10.5321 19.459 10.5321Z" fill="#1c61e7"></path></svg> 