<?xml version="1.0" encoding="UTF-8"?> <svg xmlns="http://www.w3.org/2000/svg" width="26" height="26" viewBox="0 0 26 26" fill="none"><path d="M25.9954 8.66663H0V9.74996C0 10.3246 0.228273 10.8757 0.634602 11.282C1.04093 11.6884 1.59203 11.9166 2.16667 11.9166H5.41667C5.9913 11.9166 6.5424 11.6884 6.94873 11.282C7.35506 10.8757 7.58333 10.3246 7.58333 9.74996C7.58333 10.3246 7.81161 10.8757 8.21794 11.282C8.62426 11.6884 9.17536 11.9166 9.75 11.9166H16.25C16.8246 11.9166 17.3757 11.6884 17.7821 11.282C18.1884 10.8757 18.4167 10.3246 18.4167 9.74996C18.4167 10.3246 18.6449 10.8757 19.0513 11.282C19.4576 11.6884 20.0087 11.9166 20.5833 11.9166H23.8333C24.408 11.9166 24.9591 11.6884 25.3654 11.282C25.7717 10.8757 26 10.3246 26 9.74996V8.66663H25.9954Z" fill="#1c61e7"></path><path d="M25.7338 7.58333L23.7916 0.785417C23.7269 0.559116 23.5902 0.360053 23.4023 0.218343C23.2144 0.076633 22.9854 -1.3126e-05 22.75 1.68608e-09L17.7881 1.68608e-09L19.3047 7.58333H25.7338Z" fill="#1c61e7"></path><path d="M8.21194 1.68608e-09H3.25C3.01462 -1.3126e-05 2.78565 0.076633 2.59771 0.218343C2.40977 0.360053 2.2731 0.559116 2.20837 0.785417L0.266228 7.58333H6.69527L8.21194 1.68608e-09Z" fill="#1c61e7"></path><path d="M15.5786 0H10.4214L8.90473 7.58333H17.0953L15.5786 0Z" fill="#1c61e7"></path><path d="M20.5833 13C19.7834 13.0006 19.0116 12.7051 18.4167 12.1704C17.8217 12.7051 17.0499 13.0006 16.25 13H9.75C8.95009 13.0006 8.17827 12.7051 7.58334 12.1704C6.98841 12.7051 6.21658 13.0006 5.41667 13H2.16667C1.79737 12.9992 1.43095 12.9351 1.08334 12.8104V24.9166C1.08334 25.204 1.19747 25.4795 1.40064 25.6827C1.6038 25.8858 1.87935 26 2.16667 26H4.33334V16.25C4.33334 15.9627 4.44747 15.6871 4.65064 15.4839C4.8538 15.2808 5.12935 15.1666 5.41667 15.1666H10.8333C11.1207 15.1666 11.3962 15.2808 11.5994 15.4839C11.8025 15.6871 11.9167 15.9627 11.9167 16.25V26H23.8333C24.1207 26 24.3962 25.8858 24.5994 25.6827C24.8025 25.4795 24.9167 25.204 24.9167 24.9166V12.8104C24.5691 12.9351 24.2026 12.9992 23.8333 13H20.5833ZM21.6667 19.5C21.6667 19.7873 21.5525 20.0628 21.3494 20.266C21.1462 20.4692 20.8707 20.5833 20.5833 20.5833H15.1667C14.8794 20.5833 14.6038 20.4692 14.4006 20.266C14.1975 20.0628 14.0833 19.7873 14.0833 19.5V16.25C14.0833 15.9627 14.1975 15.6871 14.4006 15.4839C14.6038 15.2808 14.8794 15.1666 15.1667 15.1666H20.5833C20.8707 15.1666 21.1462 15.2808 21.3494 15.4839C21.5525 15.6871 21.6667 15.9627 21.6667 16.25V19.5Z" fill="#1c61e7"></path></svg> 